<svg width="300" height="76" viewBox="0 0 300 76" fill="none" xmlns="http://www.w3.org/2000/svg">
<path d="M52.5312 39.0781C52.5312 43.2969 52.3125 47.0625 51.875 50.375C51.4375 53.6875 50.7969 56.6406 49.9531 59.2344C49.1406 61.7969 48.125 64.0312 46.9062 65.9375C45.7188 67.8125 44.3438 69.4219 42.7812 70.7656C40.9062 72.4219 39.2969 73.25 37.9531 73.25C37.2969 73.25 36.9688 72.8594 36.9688 72.0781C36.9688 71.8281 37.2031 71.4062 37.6719 70.8125C38.1406 70.1875 38.5938 69.4531 39.0312 68.6094C41.5312 63.8906 42.7812 56.7344 42.7812 47.1406C42.7812 45.4219 42.7812 43.4219 42.7812 41.1406C42.7812 38.8594 42.625 36.5156 42.3125 34.1094C42.0312 31.6719 41.5312 29.2812 40.8125 26.9375C40.0938 24.5938 39 22.5 37.5312 20.6562C36.0625 18.8125 34.1406 17.3281 31.7656 16.2031C29.4219 15.0469 26.4844 14.4688 22.9531 14.4688C20.2031 14.4688 17.5156 14.9844 14.8906 16.0156C12.2656 17.0469 9.65625 18.5781 7.0625 20.6094L5.5625 21.7812C5.28125 22.0312 4.96875 22.25 4.625 22.4375C4.28125 22.625 4.03125 22.7188 3.875 22.7188C3.21875 22.7188 2.89062 22.4062 2.89062 21.7812C2.89062 20.8125 3.5625 19.4688 4.90625 17.75C7.71875 14.1562 11.0312 11.4375 14.8438 9.59375C18.6562 7.71875 22.6719 6.78125 26.8906 6.78125C31.1406 6.78125 34.8594 7.42188 38.0469 8.70312C41.2656 9.98438 43.9375 11.9531 46.0625 14.6094C48.2188 17.2344 49.8281 20.5781 50.8906 24.6406C51.9844 28.7031 52.5312 33.5156 52.5312 39.0781ZM12.4062 24.3594C12.4062 24.6406 12.25 25.625 11.9375 27.3125C11.625 28.9688 11.3125 31.1719 11 33.9219C10.6875 36.6719 10.5312 39.5 10.5312 42.4062C10.5312 44.6562 10.5938 46.7031 10.7188 48.5469C10.875 50.3906 11.125 52.3281 11.4688 54.3594C11.8125 56.3906 12.3438 58.1719 13.0625 59.7031C13.7812 61.2031 14.6719 62.5938 15.7344 63.875C16.7969 65.125 18.1562 66.0938 19.8125 66.7812C21.4688 67.4375 23.3594 67.7656 25.4844 67.7656C27.3594 67.7656 29.0156 67.5781 30.4531 67.2031C31.8906 66.7969 33 66.4062 33.7812 66.0312C34.5625 65.6562 35.0938 65.4688 35.375 65.4688C36.0625 65.4688 36.4062 65.8438 36.4062 66.5938C36.4062 67.375 36.1094 68.25 35.5156 69.2188C34.9219 70.1875 34.0938 71.1562 33.0312 72.125C31.9688 73.0625 30.5312 73.8438 28.7188 74.4688C26.9062 75.125 24.9531 75.4531 22.8594 75.4531C18.6406 75.4531 15.0781 74.7656 12.1719 73.3906C9.26562 71.9844 6.98438 69.875 5.32812 67.0625C3.70312 64.25 2.53125 61 1.8125 57.3125C1.125 53.625 0.78125 49.2344 0.78125 44.1406C0.78125 36.4219 1.5625 31.0781 3.125 28.1094C4 26.4844 5.25 25.1719 6.875 24.1719C8.5 23.1406 9.85938 22.625 10.9531 22.625C11.9219 22.625 12.4062 23.2031 12.4062 24.3594ZM63.2656 72.4531V48.8281C63.2656 47.0781 63.6875 45.7344 64.5312 44.7969C65.375 43.8281 66.375 42.9531 67.5312 42.1719C68.6875 41.3594 69.5938 40.9531 70.25 40.9531C71.2188 40.9531 71.7031 41.625 71.7031 42.9688V68.5625C71.7031 70.2812 70.9375 71.7031 69.4062 72.8281C67.875 73.9219 66.375 74.4688 64.9062 74.4688C63.8125 74.4688 63.2656 73.7969 63.2656 72.4531ZM83.4219 24.5469C85.2031 24.5469 87.0625 24.9375 89 25.7188C90.9688 26.5 91.9531 27.5156 91.9531 28.7656C91.9531 29.7656 91.2969 30.8125 89.9844 31.9062C88.6719 32.9688 87.5156 33.5 86.5156 33.5C85.6719 33.5 84.4844 33.1094 82.9531 32.3281C81.5156 31.6406 80.2031 31.2969 79.0156 31.2969C78.2656 31.2969 77.5469 31.4219 76.8594 31.6719C76.1719 31.8906 75.375 32.3438 74.4688 33.0312C73.5625 33.6875 72.8125 34.2656 72.2188 34.7656C71.6562 35.2344 70.6719 36.125 69.2656 37.4375C67.8906 38.7188 66.8125 39.7031 66.0312 40.3906C65.3438 40.9844 64.7656 41.2812 64.2969 41.2812C63.6094 41.2812 63.2656 40.7031 63.2656 39.5469V30.4531C63.2656 28.7656 64.0312 27.3594 65.5625 26.2344C67.125 25.1094 68.625 24.5469 70.0625 24.5469C71.1562 24.5469 71.7031 25.2188 71.7031 26.5625V29.1875C71.7031 30.1875 71.9219 30.6875 72.3594 30.6875C72.7031 30.6875 73.25 30.3125 74 29.5625C77.3438 26.2188 80.4844 24.5469 83.4219 24.5469ZM106.203 26.5625V68.4219C106.203 69.6094 105.922 70.5781 105.359 71.3281C104.547 72.2656 103.578 73.0312 102.453 73.625C101.359 74.1875 100.344 74.4688 99.4062 74.4688C98.3125 74.4688 97.7656 73.7969 97.7656 72.4531V30.5938C97.7656 29.4062 98.0469 28.4531 98.6094 27.7344C99.4219 26.7969 100.375 26.0312 101.469 25.4375C102.594 24.8438 103.625 24.5469 104.562 24.5469C105.656 24.5469 106.203 25.2188 106.203 26.5625ZM106.203 2.14062V8.9375C106.203 10.125 105.922 11.0938 105.359 11.8438C104.547 12.7812 103.578 13.5469 102.453 14.1406C101.359 14.7031 100.344 14.9844 99.4062 14.9844C98.3125 14.9844 97.7656 14.3125 97.7656 12.9688V6.17188C97.7656 4.95312 98.0469 4 98.6094 3.3125C99.4219 2.375 100.375 1.60938 101.469 1.01562C102.594 0.421875 103.625 0.125 104.562 0.125C105.656 0.125 106.203 0.796875 106.203 2.14062ZM117.828 72.4531V47.2344C117.828 45.4844 118.25 44.1406 119.094 43.2031C119.938 42.2344 120.938 41.375 122.094 40.625C123.25 39.8438 124.156 39.4531 124.812 39.4531C125.781 39.4531 126.266 40.125 126.266 41.4688V68.4219C126.266 70.1406 125.484 71.5781 123.922 72.7344C122.391 73.8906 120.906 74.4688 119.469 74.4688C118.375 74.4688 117.828 73.7969 117.828 72.4531ZM128.844 28.5312C130.625 27.2188 132.484 26.2344 134.422 25.5781C136.359 24.8906 138.094 24.5469 139.625 24.5469C145.062 24.5469 149.047 26.0781 151.578 29.1406C154.109 32.1719 155.375 37.2656 155.375 44.4219V68.4219C155.375 70.1094 154.609 71.5469 153.078 72.7344C151.547 73.8906 150.047 74.4688 148.578 74.4688C147.484 74.4688 146.938 73.7969 146.938 72.4531V53.9375C146.938 51 146.906 48.7812 146.844 47.2812C146.812 45.7812 146.688 43.9844 146.469 41.8906C146.281 39.7969 145.953 38.25 145.484 37.25C145.016 36.2188 144.375 35.1719 143.562 34.1094C142.781 33.0469 141.75 32.3125 140.469 31.9062C139.188 31.5 137.656 31.2969 135.875 31.2969C132.281 31.2969 127.359 33.6875 121.109 38.4688C120.109 39.25 119.328 39.6406 118.766 39.6406C118.141 39.6406 117.828 39.1094 117.828 38.0469V30.5938C117.828 28.9062 118.594 27.4844 120.125 26.3281C121.688 25.1406 123.188 24.5469 124.625 24.5469C125.719 24.5469 126.266 25.2188 126.266 26.5625V27.7344C126.266 28.8594 126.516 29.4219 127.016 29.4219C127.453 29.4219 128.062 29.125 128.844 28.5312ZM185.188 24.5469C192.312 24.5469 197.547 26.6562 200.891 30.875C204.266 35.0625 205.953 41.25 205.953 49.4375C205.953 51.9688 205.625 54.6875 204.969 57.5938C204.344 60.4688 203.484 63.0312 202.391 65.2812C201.203 67.6562 199.75 69.6719 198.031 71.3281C196.312 72.9844 194.922 73.8125 193.859 73.8125C193.203 73.8125 192.875 73.5156 192.875 72.9219C192.875 72.7344 192.984 72.4844 193.203 72.1719C193.422 71.8594 193.719 71.3906 194.094 70.7656C194.469 70.1094 194.797 69.3594 195.078 68.5156C196.359 65.0156 197 60.0625 197 53.6562C197 50.125 196.75 47.0625 196.25 44.4688C195.781 41.8438 194.984 39.5156 193.859 37.4844C192.766 35.4531 191.234 33.9219 189.266 32.8906C187.297 31.8281 184.891 31.2969 182.047 31.2969C178.109 31.2969 174.047 32.7344 169.859 35.6094C169.703 35.7344 169.469 35.9062 169.156 36.125C168.844 36.3125 168.594 36.4688 168.406 36.5938C168.25 36.7188 168.078 36.8281 167.891 36.9219C167.703 37.0156 167.547 37.0625 167.422 37.0625C166.984 37.0625 166.766 36.7969 166.766 36.2656C166.766 35.9219 166.938 35.4219 167.281 34.7656C167.656 34.1094 167.969 33.625 168.219 33.3125C172.781 27.4688 178.438 24.5469 185.188 24.5469ZM173.75 48.125C173.75 50.3125 173.797 52.1875 173.891 53.75C173.984 55.3125 174.156 56.9375 174.406 58.625C174.688 60.3125 175.094 61.7188 175.625 62.8438C176.188 63.9688 176.875 65 177.688 65.9375C178.531 66.875 179.594 67.5781 180.875 68.0469C182.156 68.4844 183.656 68.7031 185.375 68.7031C186.844 68.7031 188.125 68.5 189.219 68.0938C190.344 67.6875 190.984 67.4844 191.141 67.4844C191.797 67.4844 192.125 67.8281 192.125 68.5156C192.125 69.9219 191.109 71.4375 189.078 73.0625C187.078 74.6562 184.609 75.4531 181.672 75.4531C178.953 75.4531 176.578 75 174.547 74.0938C172.547 73.1875 170.938 72 169.719 70.5312C168.5 69.0625 167.516 67.2188 166.766 65C166.047 62.7812 165.562 60.5469 165.312 58.2969C165.062 56.0469 164.938 53.5 164.938 50.6562C164.938 49.0625 165.094 47.3906 165.406 45.6406C165.719 43.8594 166.141 42.5 166.672 41.5625C167.328 40.4375 168.375 39.4062 169.812 38.4688C171.281 37.5312 172.531 37.0625 173.562 37.0625C174.344 37.0625 174.734 37.5312 174.734 38.4688C174.734 38.625 174.562 39.8281 174.219 42.0781C173.906 44.3281 173.75 46.3438 173.75 48.125ZM223.484 50.1875C223.484 62.4688 227.859 68.6094 236.609 68.6094C238.422 68.6094 240.125 68.4062 241.719 68C243.312 67.5625 244.531 67.0781 245.375 66.5469C246.25 66.0156 247.062 65.5469 247.812 65.1406C248.562 64.7031 249.094 64.4844 249.406 64.4844C250.156 64.4844 250.531 64.8438 250.531 65.5625C250.531 66.25 250.125 67.1406 249.312 68.2344C248.5 69.2969 247.406 70.375 246.031 71.4688C244.656 72.5625 242.875 73.5 240.688 74.2812C238.531 75.0625 236.281 75.4531 233.938 75.4531C227.375 75.4531 222.516 73.4844 219.359 69.5469C216.203 65.5781 214.625 59.8906 214.625 52.4844C214.625 47.2656 215.328 43.5938 216.734 41.4688C217.453 40.375 218.547 39.3594 220.016 38.4219C221.484 37.4531 222.734 36.9688 223.766 36.9688C224.516 36.9688 224.891 37.4062 224.891 38.2812C224.891 38.3125 224.656 39.6719 224.188 42.3594C223.719 45.0469 223.484 47.6562 223.484 50.1875ZM247.672 27.2656C248.609 27.9844 249.078 28.7188 249.078 29.4688C249.078 30.25 248.453 31.2031 247.203 32.3281C245.953 33.4219 244.797 33.9688 243.734 33.9688C242.828 33.9688 241.766 33.6875 240.547 33.125C237.922 31.9062 235.531 31.2969 233.375 31.2969C228.625 31.2969 224.047 32.8281 219.641 35.8906C218.297 36.7969 217.484 37.25 217.203 37.25C216.766 37.25 216.547 36.9844 216.547 36.4531C216.547 36.0781 216.719 35.5625 217.062 34.9062C217.406 34.25 217.719 33.75 218 33.4062C220.375 30.375 223 28.1406 225.875 26.7031C228.75 25.2656 232.391 24.5469 236.797 24.5469C238.766 24.5469 240.781 24.7812 242.844 25.25C244.906 25.7188 246.516 26.3906 247.672 27.2656ZM278.469 24.5469C285.594 24.5469 290.828 26.6562 294.172 30.875C297.547 35.0625 299.234 41.25 299.234 49.4375C299.234 51.9688 298.906 54.6875 298.25 57.5938C297.625 60.4688 296.766 63.0312 295.672 65.2812C294.484 67.6562 293.031 69.6719 291.312 71.3281C289.594 72.9844 288.203 73.8125 287.141 73.8125C286.484 73.8125 286.156 73.5156 286.156 72.9219C286.156 72.7344 286.266 72.4844 286.484 72.1719C286.703 71.8594 287 71.3906 287.375 70.7656C287.75 70.1094 288.078 69.3594 288.359 68.5156C289.641 65.0156 290.281 60.0625 290.281 53.6562C290.281 50.125 290.031 47.0625 289.531 44.4688C289.062 41.8438 288.266 39.5156 287.141 37.4844C286.047 35.4531 284.516 33.9219 282.547 32.8906C280.578 31.8281 278.172 31.2969 275.328 31.2969C271.391 31.2969 267.328 32.7344 263.141 35.6094C262.984 35.7344 262.75 35.9062 262.438 36.125C262.125 36.3125 261.875 36.4688 261.688 36.5938C261.531 36.7188 261.359 36.8281 261.172 36.9219C260.984 37.0156 260.828 37.0625 260.703 37.0625C260.266 37.0625 260.047 36.7969 260.047 36.2656C260.047 35.9219 260.219 35.4219 260.562 34.7656C260.938 34.1094 261.25 33.625 261.5 33.3125C266.062 27.4688 271.719 24.5469 278.469 24.5469ZM267.031 48.125C267.031 50.3125 267.078 52.1875 267.172 53.75C267.266 55.3125 267.438 56.9375 267.688 58.625C267.969 60.3125 268.375 61.7188 268.906 62.8438C269.469 63.9688 270.156 65 270.969 65.9375C271.812 66.875 272.875 67.5781 274.156 68.0469C275.438 68.4844 276.938 68.7031 278.656 68.7031C280.125 68.7031 281.406 68.5 282.5 68.0938C283.625 67.6875 284.266 67.4844 284.422 67.4844C285.078 67.4844 285.406 67.8281 285.406 68.5156C285.406 69.9219 284.391 71.4375 282.359 73.0625C280.359 74.6562 277.891 75.4531 274.953 75.4531C272.234 75.4531 269.859 75 267.828 74.0938C265.828 73.1875 264.219 72 263 70.5312C261.781 69.0625 260.797 67.2188 260.047 65C259.328 62.7812 258.844 60.5469 258.594 58.2969C258.344 56.0469 258.219 53.5 258.219 50.6562C258.219 49.0625 258.375 47.3906 258.688 45.6406C259 43.8594 259.422 42.5 259.953 41.5625C260.609 40.4375 261.656 39.4062 263.094 38.4688C264.562 37.5312 265.812 37.0625 266.844 37.0625C267.625 37.0625 268.016 37.5312 268.016 38.4688C268.016 38.625 267.844 39.8281 267.5 42.0781C267.188 44.3281 267.031 46.3438 267.031 48.125Z" fill="#1E272E"/>
</svg>
